# xmcd
# 
# Track frame offsets:
#     150
#     16532
#     32520
#     53237
#     71295
#     85540
#     101537
#     119492
#     142265
#     158432
#     172380
#     190107
#     208084
# 
# Disc length: 2991
# 
# Revision: 8
# Processed by: cddbd v1.5.2PL0 Copyright (c) Steve Scherf et al.
# Submitted via: fre:ac v1.0.27
# 
DISCID=a70bad0d
DTITLE=Christina Aguilera - Christina Aguilera
DYEAR=1999
DGENRE=Pop
TTITLE0=Genie In A Bottle
TTITLE1=What A Girl Wants
TTITLE2=I Turn To You
TTITLE3=So Emotional
TTITLE4=Come On Over (All I Want Is You)
TTITLE5=Reflection
TTITLE6=Love For All Seasons
TTITLE7=Somebody's Somebody
TTITLE8=When You Put Your Hands On Me
TTITLE9=Blessed
TTITLE10=Love Will Find A Way
TTITLE11=Obvious
TTITLE12=Genio Atrapado [Spanish Version]
EXTD=
EXTT0=
EXTT1=
EXTT2=
EXTT3=
EXTT4=
EXTT5=
EXTT6=
EXTT7=
EXTT8=
EXTT9=
EXTT10=
EXTT11=
EXTT12=
PLAYORDER=
